# AST/ASF file generated using VICON BodyLanguage
# -----------------------------------------------
:version 1.10
:name VICON
:units
  mass 1.0
  length 0.45
  angle deg
:documentation
   .ast/.asf automatically generated from VICON data using
   VICON BodyBuilder and BodyLanguage model FoxedUp or BRILLIANT.MOD
:root
   order TX TY TZ RX RY RZ
   axis XYZ
   position 0 0 0  
   orientation 0 0 0 
:bonedata
  begin
     id 1 
     name lhipjoint
     direction 0.612567 -0.751349 0.245431 
     length 2.42285 
     axis 0 0 0  XYZ
  end
  begin
     id 2 
     name lfemur
     direction 0.34202 -0.939693 0  
     length 7.11304  
     axis 0 0 20  XYZ
    dof rx ry rz
    limits (-160.0 20.0)
           (-70.0 70.0)
           (-60.0 70.0)
  end
  begin
     id 3 
     name ltibia
     direction 0.34202 -0.939693 0   
     length 7.84529   
     axis 0 0 20   XYZ
    dof rx
    limits (-10.0 170.0)
  end
  begin
     id 4 
     name lfoot
     direction 0.0779239 -0.214094 0.9737   
     length 1.97176   
     axis -90 7.62852e-016 20   XYZ
    dof rx rz
    limits (-45.0 90.0)
           (-70.0 20.0)
  end
  begin
     id 5 
     name ltoes
     direction 1.53565e-011 -4.21709e-011 1   
     length 0.993197   
     axis -90 7.62852e-016 20   XYZ
    dof rx
    limits (-90.0 20.0)
  end
  begin
     id 6 
     name rhipjoint
     direction -0.665722 -0.709315 0.231701   
     length 2.56642  
     axis 0 0 0  XYZ 
  end
  begin
     id 7 
     name rfemur
     direction -0.34202 -0.939693 0   
     length 7.32108   
     axis 0 0 -20   XYZ
    dof rx ry rz
    limits (-160.0 20.0)
           (-70.0 70.0)
           (-70.0 60.0)
  end
  begin
     id 8 
     name rtibia
     direction -0.34202 -0.939693 0   
     length 7.81254   
     axis 0 0 -20   XYZ
    dof rx
    limits (-10.0 170.0)
 end
 begin
     id 9 
     name rfoot
     direction -0.0832806 -0.228812 0.969902   
     length 2.08278  
     axis -90 -7.62852e-016 -20   XYZ
    dof rx rz
    limits (-45.0 90.0)
           (-20.0 70.0)
  end
  begin
     id 10 
     name rtoes
     direction -1.53589e-011 -4.22086e-011 1   
     length 1.04609   
     axis -90 -7.62852e-016 -20   XYZ
    dof rx
    limits (-90.0 20.0)
  end
  begin
     id 11 
     name lowerback
     direction -0.00506013 0.988403 -0.151766   
     length 2.01978   
     axis 0 0 0   XYZ
    dof rx ry rz
    limits (-20.0 45.0)
           (-30.0 30.0)
           (-30.0 30.0)
  end
  begin
     id 12 
     name upperback
     direction -0.00836389 0.99968 0.0238859   
     length 2.01276   
     axis 0 0 0   XYZ
    dof rx ry rz
    limits (-20.0 45.0)
           (-30.0 30.0)
           (-30.0 30.0)
  end
  begin
     id 13 
     name thorax
     direction -0.00684136 0.995386 0.0957043   
     length 2.07303   
     axis 0 0 0   XYZ
    dof rx ry rz
    limits (-20.0 45.0)
           (-30.0 30.0)
           (-30.0 30.0)
  end
  begin
     id 14 
     name lowerneck
     direction -0.0161045 0.999661 0.0204485   
     length 1.91243   
     axis 0 0 0   XYZ
    dof rx ry rz
    limits (-20.0 45.0)
           (-30.0 30.0)
           (-30.0 30.0)
  end
  begin
     id 15 
     name upperneck
     direction 0.0553583 0.990946 -0.122319   
     length 1.91574   
     axis 0 0 0   XYZ
    dof rx ry rz
    limits (-20.0 45.0)
           (-30.0 30.0)
           (-30.0 30.0)
  end
  begin
     id 16
     name head
     direction 0.0180273 0.998839 -0.0446756  
     length 1.92693  
     axis 0 0 0   XYZ
    dof rx ry rz
    limits (-20.0 45.0)
           (-30.0 30.0)
           (-30.0 30.0)
  end
  begin
     id 17 
     name lclavicle
     direction 0.945646 0.319323 -0.0615358  
     length 4.0076  
     axis 0 0 0   XYZ
    dof ry rz
    limits (-20.0 10.0)
           (0.0 20.0)
  end
  begin
     id 18 
     name lhumerus
     direction 1 -4.48967e-011 -2.79996e-027   
     length 5.64147   
     axis 180 -30 -90   XYZ
    dof rx ry rz
    limits (-60.0 90.0)
           (-90.0 90.0)
           (-90.0 90.0)
  end
  begin
     id 19
     name lradius
     direction 1 -4.48976e-011 -9.5122e-027   
     length 2.86444   
     axis 180 -30 -90   XYZ
    dof rx
    limits (-10.0 170.0)
  end
  begin
     id 20
     name lwrist
     direction 1 -4.48983e-011 -1.24047e-026   
     length 1.43222   
     axis 9.05591e-015 90 90   XYZ
    dof ry
    limits (-180.0 0.0)
 end
  begin
     id 21 
     name lhand
     direction 1 -4.4892e-011 -2.48094e-026   
     length 0.722123   
     axis 1.58305e-014 90 90   XYZ
    dof rx rz
    limits (-90.0 90.0)
           (-45.0 45.0)
  end
  begin
     id 22 
     name lfingers
     direction 1 -4.48895e-011 -4.96187e-026   
     length 0.582194   
     axis 3.1661e-014 90 90   XYZ
    dof rx
    limits (0.0 90.0)
  end
  begin
     id 23
     name lthumb
     direction 0.707107 -6.34961e-011 0.707107   
     length 0.835918   
     axis -90 45 2.85299e-015   XYZ
    dof rx rz
    limits (-45.0 45.0)
           (-45.0 45.0)
  end
  begin
     id 24 
     name rclavicle
     direction -0.932635 0.324218 -0.15835   
     length 3.65819  
     axis 0 0 0   XYZ 
    dof ry rz
    limits (-10.0 20.0)
           (-20.0 0.0)
  end
  begin
     id 25 
     name rhumerus
     direction -1 -4.48965e-011 -4.02296e-027  
     length 5.44729   
     axis 180 30 90   XYZ
    dof rx ry rz
    limits (-90.0 60.0)
           (-90.0 90.0)
           (-90.0 90.0)
  end
  begin
     id 26 
     name rradius
     direction -1 -4.48957e-011 -8.81087e-027   
     length 3.08821   
     axis 180 30 90   XYZ
    dof rx
    limits (-10.0 170.0)
  end
  begin
     id 27 
     name rwrist
     direction -1 -4.49015e-011 -1.24047e-026   
     length 1.5441   
     axis 9.05591e-015 -90 -90   XYZ
    dof ry
    limits (-180.0 0.0)
  end
  begin
     id 28
     name rhand
     direction -1 -4.4891e-011 -2.48094e-026   
     length 0.821049   
     axis 1.58305e-014 -90 -90   XYZ
    dof rx rz
    limits (-90.0 90.0)
           (-45.0 45.0)
  end
  begin
     id 29
     name rfingers
     direction -1 -4.48985e-011 -4.96187e-026   
     length 0.661951   
     axis 3.1661e-014 -90 -90   XYZ
    dof rx
    limits (0.0 90.0)
  end
  begin
     id 30
     name rthumb
     direction -0.707107 -6.34906e-011 0.707107   
     length 0.950433   
     axis -90 -45 -2.85299e-015   XYZ
    dof rx rz
    limits (-45.0 45.0)
           (-45.0 45.0)
  end
:hierarchy
  begin
    root lhipjoint rhipjoint lowerback
    lhipjoint lfemur
    lfemur ltibia
    ltibia lfoot
    lfoot ltoes
    rhipjoint rfemur
    rfemur rtibia
    rtibia rfoot
    rfoot rtoes
    lowerback upperback
    upperback thorax
    thorax lowerneck lclavicle rclavicle
    lowerneck upperneck
    upperneck head
    lclavicle lhumerus
    lhumerus lradius
    lradius lwrist
    lwrist lhand lthumb
    lhand lfingers
    rclavicle rhumerus
    rhumerus rradius
    rradius rwrist
    rwrist rhand rthumb
    rhand rfingers
  end

#!OML:ASF F:\VICON\USERDATA\INSTALL\rory3\rory3.ASF
:FULLY-SPECIFIED
:DEGREES
259
root 3.22434 17.6112 -2.33973 -2.04155 29.9946 -3.37326
lowerback -0.060821 -0.0943645 2.39585
upperback 3.27405 -0.123748 -1.27601
thorax 3.39471 0.0329962 -2.66141
lowerneck -3.96628 -2.96757 -2.63874
upperneck 16.9016 -4.3104 3.83444
head 5.89428 -1.95462 1.37796
rclavicle -5.6753e-014 1.11319e-014
rhumerus -33.7131 -13.8024 -82.9871
rradius 29.6582
rwrist 15.785
rhand -6.92792 9.15201
rfingers 7.12502
rthumb 18.9401 -19.9459
lclavicle -5.6753e-014 1.11319e-014
lhumerus -20.2384 -8.8993 87.8852
lradius 25.4126
lwrist 30.6594
lhand -12.8362 10.4071
lfingers 7.12502
lthumb 13.2511 39.9658
rfemur -25.7069 -2.02936 26.0217
rtibia 22.4289
rfoot -22.2437 4.47725
rtoes -12.6308
lfemur 6.41102 7.15531 -21.9865
ltibia 10.4653
lfoot -12.441 -9.65699
ltoes 5.74802
260
root 3.25385 17.6036 -2.28393 -1.98334 30.0921 -3.24357
lowerback -0.0909631 -0.0889483 2.28257
upperback 3.29096 -0.113969 -1.30142
thorax 3.4297 0.0358079 -2.62383
lowerneck -3.966 -2.99923 -2.59519
upperneck 16.8865 -4.35251 3.80489
head 5.8894 -1.97454 1.3587
rclavicle -1.04263e-013 2.06736e-014
rhumerus -33.7132 -13.7969 -83.0078
rradius 29.6116
rwrist 15.5262
rhand -7.2158 9.24907
rfingers 7.12502
rthumb 18.6633 -19.8756
lclavicle -1.04263e-013 2.06736e-014
lhumerus -20.2827 -9.21165 88.0043
lradius 25.4862
lwrist 30.8629
lhand -12.9468 10.4547
lfingers 7.12502
lthumb 13.1445 40.0204
rfemur -25.921 -2.47513 26.1969
rtibia 22.0359
rfoot -22.0976 4.72969
rtoes -12.2375
lfemur 6.84629 7.19557 -22.07
ltibia 10.0697
lfoot -11.9325 -9.93229
ltoes 9.47124
261
root 3.28364 17.5915 -2.22921 -1.88273 30.1688 -3.12402
lowerback -0.109204 -0.0922104 2.19812
upperback 3.26844 -0.116042 -1.33451
thorax 3.41639 0.0323766 -2.61054
lowerneck -3.96882 -3.01572 -2.51425
upperneck 16.9018 -4.37025 3.72488
head 5.89191 -1.98347 1.31888
rclavicle -2.42517e-014 -7.95139e-015
rhumerus -33.7235 -13.8043 -83.02
rradius 29.4991
rwrist 15.3985
rhand -7.3523 9.41419
rfingers 7.12502
rthumb 18.532 -19.7231
lclavicle -2.42517e-014 -7.95139e-015
lhumerus -20.3052 -9.26518 88.0489
lradius 25.4737
lwrist 30.8271
lhand -12.9305 10.6027
lfingers 7.12502
lthumb 13.1602 40.1674
rfemur -26.1803 -3.04897 26.4364
rtibia 21.675
rfoot -21.857 4.91878
rtoes -13.2379
lfemur 7.20897 7.21035 -22.1628
ltibia 9.64662
lfoot -11.5469 -10.1383
ltoes 12.0892
262
root 3.31474 17.5851 -2.17574 -1.78214 30.2582 -2.93141
lowerback -0.103074 -0.0900042 2.1331
upperback 3.25901 -0.10976 -1.3962
thorax 3.40347 0.0343951 -2.63745
lowerneck -4.05937 -3.04872 -2.55509
upperneck 17.0144 -4.41306 3.72605
head 5.94537 -2.00419 1.32152
rclavicle -3.88624e-014 3.97569e-015
rhumerus -33.7463 -13.9319 -82.9704
rradius 29.4412
rwrist 15.515
rhand -7.23004 9.24237
rfingers 7.12502
rthumb 18.6496 -19.8836
lclavicle -3.88624e-014 3.97569e-015
lhumerus -20.2933 -9.14514 88.0819
lradius 25.3589
lwrist 30.6622
lhand -12.9067 10.4704
lfingers 7.12502
lthumb 13.1831 40.0336
rfemur -26.3818 -3.60467 26.5865
rtibia 21.367
rfoot -21.6761 5.16948
rtoes -13.753
lfemur 7.67717 7.21853 -22.3393
ltibia 9.16764
lfoot -11.5883 -10.026
ltoes 9.48266
263
root 3.34445 17.5856 -2.12083 -1.6527 30.3356 -2.67395
lowerback -0.109122 -0.0839122 2.01274
upperback 3.23992 -0.0967078 -1.48216
thorax 3.38777 0.0384545 -2.65809
lowerneck -4.07776 -3.08178 -2.58836
upperneck 17.1089 -4.45904 3.74081
head 5.98097 -2.02596 1.32814
rclavicle 1.44119e-014 7.15625e-015
rhumerus -33.8672 -13.8844 -83.0251
rradius 29.5667
rwrist 15.7315
rhand -7.05248 8.81657
rfingers 7.12502
rthumb 18.8204 -20.293
lclavicle 1.44119e-014 7.15625e-015
lhumerus -20.351 -9.08394 88.1152
lradius 25.269
lwrist 30.6841
lhand -12.8901 10.33
lfingers 7.12502
lthumb 13.1992 39.8922
rfemur -26.5295 -3.96886 26.6051
rtibia 21.0734
rfoot -21.5983 5.4073
rtoes -13.5178
lfemur 8.18135 7.24008 -22.5687
ltibia 8.72955
lfoot -11.6569 -9.78971
ltoes 7.01314
